<?xml version="1.0" encoding="utf-8"?>
<svg version="1.0" viewBox="0 0 128 128" xmlns="http://www.w3.org/2000/svg">
  <path d="M 49.276 1.951 C 45.301 2.821 38.966 5.181 34.991 7.044 C 25.674 11.64 11.638 25.677 7.166 34.993 C -5.38 60.955 -0.908 88.531 19.215 108.654 C 39.338 128.777 66.915 133.249 92.876 120.703 C 102.192 116.231 116.229 102.195 120.701 92.879 C 133.247 66.917 128.775 39.341 108.652 19.218 C 92.379 2.945 70.89 -3.266 49.276 1.951 Z M 77.97 4.312 C 89.522 7.044 97.72 11.765 106.913 20.957 C 122.688 36.732 128.526 56.731 123.558 77.972 C 120.825 89.525 116.105 97.723 106.913 106.915 C 91.137 122.691 71.138 128.529 49.897 123.56 C 38.345 120.827 30.146 116.107 20.954 106.915 C 5.179 91.14 -0.66 71.141 4.309 49.899 C 7.042 38.347 11.762 30.149 20.954 20.957 C 36.73 5.181 56.729 -0.657 77.97 4.312 Z" style=""/>
  <path d="M 60.207 12.386 C 58.84 13.007 56.356 13.504 54.741 13.504 C 48.282 13.752 41.202 18.472 37.475 25.18 C 35.488 28.782 33.5 33.006 33.003 34.745 C 32.258 37.602 32.258 37.602 33.624 35.366 C 39.214 25.677 39.959 25.18 45.177 25.677 C 48.034 25.925 54.493 25.429 59.586 24.435 C 65.424 23.317 69.896 22.944 71.635 23.69 C 74.492 24.683 77.97 29.528 81.075 36.235 C 81.821 38.223 83.063 39.714 83.56 39.714 C 84.181 39.714 84.305 40.21 83.932 40.707 C 83.435 41.701 86.168 51.142 87.659 53.626 C 88.032 54.247 89.274 53.502 90.392 52.135 C 91.758 50.396 94.118 49.403 96.727 49.403 L 100.95 49.278 L 100.205 41.08 C 99.087 28.161 96.603 23.69 86.292 16.609 C 78.839 11.516 66.79 9.529 60.207 12.386 Z M 73.374 20.211 C 71.386 22.199 70.144 20.211 72.132 17.851 C 73.25 16.485 73.995 16.361 74.243 17.354 C 74.492 18.1 74.119 19.466 73.374 20.211 Z" style=""/>
  <path d="M 51.636 40.583 C 49.648 40.956 47.288 41.949 46.295 42.943 C 43.934 45.303 42.568 45.179 41.077 42.446 C 39.338 39.589 39.338 40.956 41.077 45.8 C 42.071 48.657 43.189 49.651 45.301 49.651 C 47.661 49.651 48.53 50.893 50.394 55.986 C 51.636 59.464 52.878 61.7 53.126 60.955 C 53.375 60.209 54.866 59.588 56.356 59.588 C 59.089 59.588 69.523 52.756 69.523 51.017 C 69.523 50.52 67.287 49.03 64.554 47.663 L 59.71 45.303 L 64.306 44.682 L 68.902 43.937 L 64.058 41.825 C 59.337 39.714 58.344 39.589 51.636 40.583 Z M 32.258 49.899 C 27.91 52.508 27.91 52.632 31.016 53.377 C 33.127 53.874 33.624 54.371 32.506 55.117 C 30.146 56.483 30.643 59.961 33.003 59.091 C 34.618 58.47 34.867 58.967 34.494 61.452 C 33.5 66.296 35.86 65.054 38.345 59.464 C 40.705 54.371 40.332 48.409 37.724 47.539 C 37.102 47.291 34.618 48.409 32.258 49.899 Z M 86.417 59.837 C 85.299 61.327 84.429 63.191 84.429 63.936 C 84.429 64.805 83.063 66.669 81.324 68.284 C 78.839 70.644 77.97 70.892 76.355 69.526 C 75.361 68.656 74.492 68.408 74.492 68.905 C 74.492 69.526 73.25 68.905 71.883 67.538 C 69.151 65.178 69.151 65.178 69.896 68.408 C 70.393 70.395 70.02 73.501 68.902 75.861 C 67.163 80.084 67.163 80.084 67.039 76.73 C 67.039 74.743 65.548 71.513 63.437 69.277 L 59.958 65.302 L 54.493 67.414 C 48.158 69.898 46.667 70.023 47.785 68.284 C 48.158 67.538 47.909 67.041 47.288 67.041 C 46.543 67.041 45.922 67.911 45.922 68.905 C 45.922 69.898 45.177 70.768 44.183 70.768 C 42.444 70.768 42.32 71.762 43.313 78.718 C 43.313 79.215 44.928 79.339 46.916 78.842 C 48.779 78.345 50.891 77.848 51.76 77.848 C 52.505 77.848 52.878 77.103 52.505 76.109 C 52.009 74.991 53.002 74.494 55.735 74.494 C 59.337 74.494 59.462 74.743 58.095 77.103 C 57.226 78.469 54.12 80.705 51.139 82.072 C 48.282 83.438 46.17 85.053 46.543 85.674 C 47.04 86.419 46.419 87.289 45.301 87.661 C 43.81 88.283 43.438 89.4 44.059 91.512 C 45.052 95.363 43.81 97.475 41.45 95.487 C 39.09 93.624 37.848 85.798 39.587 84.059 C 41.574 82.072 41.326 80.705 39.09 81.451 C 37.227 82.196 36.606 79.09 37.102 73.004 C 37.227 71.886 36.73 70.519 35.86 70.023 C 34.742 69.401 34.494 70.768 35.115 76.109 C 35.736 80.829 35.488 83.19 34.494 83.438 C 33.624 83.811 33.376 85.177 33.997 87.537 C 34.618 90.146 35.239 90.643 35.984 89.525 C 36.606 88.407 37.227 90.146 37.848 94.121 C 38.345 97.599 39.463 101.077 40.456 101.946 C 41.45 102.692 41.823 104.058 41.202 104.803 C 39.09 107.909 40.332 112.256 43.81 113.499 C 49.276 115.486 62.567 112.629 67.784 108.406 C 70.144 106.542 76.107 102.071 81.075 98.717 C 89.771 92.63 94.615 86.792 92.628 84.804 C 92.131 84.308 90.889 84.929 89.895 86.171 C 88.404 88.283 87.783 88.407 85.175 86.916 L 82.069 85.301 L 84.429 80.581 C 87.41 74.743 88.901 73.873 90.516 76.606 C 92.255 79.587 92.255 76.358 90.64 73.128 C 89.895 71.886 89.274 67.662 89.274 63.936 C 89.149 60.209 88.901 57.104 88.777 57.104 C 88.528 57.104 87.41 58.346 86.417 59.837 Z M 86.417 71.016 C 86.044 73.998 85.796 76.482 85.796 76.606 C 85.671 76.855 84.553 76.979 83.063 76.979 C 80.951 76.979 80.703 76.482 81.448 74.122 C 82.318 71.141 85.671 65.799 86.541 65.799 C 86.789 65.799 86.789 68.159 86.417 71.016 Z M 56.729 83.811 C 53.375 86.792 48.406 88.034 48.406 85.798 C 48.406 84.804 56.356 81.078 58.965 80.829 C 59.71 80.829 58.592 82.196 56.729 83.811 Z M 95.981 60.209 C 97.099 61.203 98.217 62.694 98.466 63.563 C 98.963 64.805 99.46 64.681 100.453 63.315 C 101.944 61.327 99.211 58.346 95.857 58.346 C 94.491 58.346 94.491 58.719 95.981 60.209 Z" style=""/>
  <path d="M 90.64 81.947 C 90.64 82.569 91.261 83.19 91.882 83.19 C 92.628 83.19 93.124 82.569 93.124 81.947 C 93.124 81.202 92.628 80.705 91.882 80.705 C 91.261 80.705 90.64 81.202 90.64 81.947 Z" style=""/>
</svg>