<svg xmlns="http://www.w3.org/2000/svg" viewBox="0 0 100 100"><path d="M92.301667 44.562121q.6-1.3 1.7-1.9 1-.25 1-3.35 0-3.05-.95-3.05-8.6-1.45-19.2-1.25-12.75.25-22 2.95h-5.75q-9.25-2.7-21.95-2.95-10.65-.2-19.2 1.25-.85.3-.95 3.2-.05 2.9.65 3.15 1.8.95 2.1 3l.5 1.9q.7 2.85 1.65 7.45t3.3 7.1q1.2 1.25 2.15 1.6l3.15.65q3.8.7 7.25.7 4.45 0 6.95-.45 3-.5 5.5-1.9 2.35-1.3 4-4.45.85-1.6 1.25-2.95.45-1.1 1.05-2.85 1.2-3.4 2-6.1.1-.5 1.1-.75.95-.25 2.2-.25 1.35 0 2.25.25 1 .25 1.1.75.8 2.7 2 6.15.6 1.7 1.05 2.8l.3.85q.4 1.1.95 2.1 1.7 3.15 4 4.45 2.55 1.4 5.55 1.9 2.45.45 6.9.45 3.45 0 7.25-.7 1.9-.35 3.15-.65l.65-.25q.75-.45 1.5-1.2 2.4-2.45 3.3-7.2.95-4.8 1.7-7.6l.85-2.85Z"/></svg>