<svg xmlns="http://www.w3.org/2000/svg" fill="#fff" height="20" viewBox="0 -960 960 960" width="20"><path d="M237.196-158.174q-93.435 0-159.511-65.076T11.609-381.761q0-86.196 53.12-151.011 53.119-64.815 135.075-70.337 26.239-77.478 88.979-128.739Q351.522-783.109 431-795.587v322.174l-46.522-46-69 69L480-285.891l165.283-164.522-68.761-69-47.522 46v-323.174q95.717 15.761 166.315 80.38 70.598 64.62 81.315 161.859 73.24 8.674 122.5 64.511Q948.391-434 948.391-358.522q0 83.435-57.956 141.892-57.957 58.456-141.392 58.456H237.196Z"/></svg>