<svg xmlns="http://www.w3.org/2000/svg" fill="#FFF" height="20" viewBox="0 -960 960 960" width="20"><path d="M431-158.174H237.196q-93.469 0-159.528-65.041-66.06-65.042-66.06-158.546 0-86.179 53.12-151.002 53.12-64.824 135.076-70.346 32-89.478 108.859-144.098 76.859-54.619 171.411-54.619 112.404 0 198.502 68.739 86.098 68.739 98.054 178.739 73.24 8.674 122.5 64.56 49.261 55.887 49.261 131.266 0 83.415-57.966 141.882-57.967 58.466-141.382 58.466H529v-240.891L579.109-350l69-68.761L480-586.348 312.652-418.761l69 68.761L431-399.065v240.891Z"/></svg>