<svg xmlns="http://www.w3.org/2000/svg" viewBox="0 0 100 100"><path d="M92.6 68.6C69.7 76 69.4 60.3 59.5 57.3c-3.9-1.2-7.2-.3-9.5 1.7-2.3-2-5.6-2.9-9.5-1.7-9.9 3-10.2 18.7-33.1 11.3-1.8-.6-3.2 1.6-1.9 3 15.2 16.7 36.4 8.1 44.5.4 8.1 7.7 29.3 16.3 44.5-.5 1.3-1.3-.1-3.5-1.9-2.9z"/><path d="m96 23.6-.4-.1c-1.6-.4-3.2-1-4.7-1.6-.8-.3-1.7-.7-2.8-1-4.6-1.4-9.6-2.1-14.8-2.1-5 0-9.7.6-14.1 1.9-4.2 1.2-5.5 2.5-9.1 2.5-3.6 0-4.9-1.2-9.1-2.5-4.4-1.3-9.1-1.9-14.1-1.9-5.3 0-10.2.7-14.8 2.1-1.3.4-2.3.8-3.2 1.2-1.4.6-2.8 1-4.3 1.4l-.6.1c-.9.2-1.5 1-1.5 1.9v3.2c0 .7.4 1.4 1 1.7l1.8 1.1c.9.5 1.5 1.5 1.5 2.6 0 10.3 7.6 19.2 17.8 20.2 11.7 1.1 21.6-8.1 21.6-19.6V34c-.1-2.2 1.7-4 3.9-4h.4c2 .1 3.4 2 3.3 4v.2c-.3 10.2 7.6 19.2 17.8 20.1 11.7 1.1 21.6-8.1 21.6-19.6 0-1.4.8-2.7 2-3.4l1.3-.8c.6-.4 1-1 1-1.7v-3.2c0-.9-.6-1.7-1.5-2zM24.4 50.3c-7.8-1-13.8-8-13.6-15.9 0-2.1.5-4 1.3-5.9.6-1.5 2-2.5 3.6-2.9 3.5-.9 7.2-1.3 11.1-1.3 3.7 0 7.2.4 10.5 1.2 1.6.4 2.9 1.3 3.6 2.8.9 2 1.4 4.2 1.4 6.5 0 9.3-8.3 16.7-17.9 15.5zm48.2.1c-8.5-.5-15.3-7.9-14.9-16.4.1-2 .6-3.9 1.4-5.7.7-1.5 2.1-2.5 3.6-2.8 3.3-.8 6.8-1.1 10.4-1.1 3.9 0 7.6.4 11.1 1.3 1.7.4 3.1 1.6 3.7 3.2.8 1.9 1.2 3.9 1.2 5.9.1 8.9-7.4 16.1-16.5 15.6z"/></svg>